<mxfile host="app.diagrams.net" modified="2021-10-26T12:30:48.931Z" agent="5.0 (Windows NT 10.0; Win64; x64) AppleWebKit/537.36 (KHTML, like Gecko) Chrome/95.0.4638.54 Safari/537.36" etag="xNzVXcIVYtDUliyGchvT" version="15.5.7" type="github">
  <diagram id="PbPA_bFUr3hzxwOP9JXW" name="Page-1">
    <mxGraphModel dx="2249" dy="762" grid="1" gridSize="10" guides="1" tooltips="1" connect="1" arrows="1" fold="1" page="1" pageScale="1" pageWidth="827" pageHeight="1169" math="0" shadow="0">
      <root>
        <mxCell id="0" />
        <mxCell id="1" parent="0" />
        <mxCell id="6ryj9MMP-z20gta8WZ5h-11" style="edgeStyle=orthogonalEdgeStyle;rounded=0;orthogonalLoop=1;jettySize=auto;html=1;exitX=1;exitY=0.5;exitDx=0;exitDy=0;entryX=0;entryY=0.5;entryDx=0;entryDy=0;" parent="1" source="6ryj9MMP-z20gta8WZ5h-1" target="6ryj9MMP-z20gta8WZ5h-5" edge="1">
          <mxGeometry relative="1" as="geometry" />
        </mxCell>
        <mxCell id="6ryj9MMP-z20gta8WZ5h-12" style="edgeStyle=orthogonalEdgeStyle;rounded=0;orthogonalLoop=1;jettySize=auto;html=1;exitX=1;exitY=0.5;exitDx=0;exitDy=0;entryX=0;entryY=0.5;entryDx=0;entryDy=0;" parent="1" source="6ryj9MMP-z20gta8WZ5h-1" target="6ryj9MMP-z20gta8WZ5h-3" edge="1">
          <mxGeometry relative="1" as="geometry" />
        </mxCell>
        <mxCell id="6ryj9MMP-z20gta8WZ5h-13" style="edgeStyle=orthogonalEdgeStyle;rounded=0;orthogonalLoop=1;jettySize=auto;html=1;exitX=1;exitY=0.5;exitDx=0;exitDy=0;entryX=0;entryY=0.5;entryDx=0;entryDy=0;" parent="1" source="6ryj9MMP-z20gta8WZ5h-1" target="6ryj9MMP-z20gta8WZ5h-4" edge="1">
          <mxGeometry relative="1" as="geometry" />
        </mxCell>
        <mxCell id="6ryj9MMP-z20gta8WZ5h-14" style="edgeStyle=orthogonalEdgeStyle;rounded=0;orthogonalLoop=1;jettySize=auto;html=1;exitX=1;exitY=0.5;exitDx=0;exitDy=0;" parent="1" source="6ryj9MMP-z20gta8WZ5h-1" edge="1">
          <mxGeometry relative="1" as="geometry">
            <mxPoint x="140" y="640" as="targetPoint" />
          </mxGeometry>
        </mxCell>
        <mxCell id="6ryj9MMP-z20gta8WZ5h-17" style="edgeStyle=orthogonalEdgeStyle;rounded=0;orthogonalLoop=1;jettySize=auto;html=1;exitX=1;exitY=0.5;exitDx=0;exitDy=0;entryX=0;entryY=0.5;entryDx=0;entryDy=0;" parent="1" source="6ryj9MMP-z20gta8WZ5h-1" target="6ryj9MMP-z20gta8WZ5h-6" edge="1">
          <mxGeometry relative="1" as="geometry" />
        </mxCell>
        <mxCell id="6ryj9MMP-z20gta8WZ5h-1" value="STRUCTURE" style="shape=hexagon;perimeter=hexagonPerimeter2;whiteSpace=wrap;html=1;fixedSize=1;fillColor=#f5f5f5;fontColor=#333333;strokeColor=#666666;strokeWidth=3;shadow=1;" parent="1" vertex="1">
          <mxGeometry y="320" width="120" height="80" as="geometry" />
        </mxCell>
        <mxCell id="6ryj9MMP-z20gta8WZ5h-3" value="LIBRARIES" style="rounded=1;whiteSpace=wrap;html=1;fillColor=#fff2cc;strokeColor=#d6b656;" parent="1" vertex="1">
          <mxGeometry x="200" y="10" width="160" height="60" as="geometry" />
        </mxCell>
        <mxCell id="6ryj9MMP-z20gta8WZ5h-28" style="edgeStyle=orthogonalEdgeStyle;rounded=0;orthogonalLoop=1;jettySize=auto;html=1;exitX=1;exitY=0.5;exitDx=0;exitDy=0;entryX=0;entryY=0.5;entryDx=0;entryDy=0;" parent="1" source="6ryj9MMP-z20gta8WZ5h-4" target="6ryj9MMP-z20gta8WZ5h-25" edge="1">
          <mxGeometry relative="1" as="geometry" />
        </mxCell>
        <mxCell id="6ryj9MMP-z20gta8WZ5h-4" value="OUTPUT" style="rounded=1;whiteSpace=wrap;html=1;fillColor=#fff2cc;strokeColor=#d6b656;" parent="1" vertex="1">
          <mxGeometry x="200" y="540" width="160" height="60" as="geometry" />
        </mxCell>
        <mxCell id="6ryj9MMP-z20gta8WZ5h-10" style="edgeStyle=orthogonalEdgeStyle;rounded=0;orthogonalLoop=1;jettySize=auto;html=1;exitX=1;exitY=0.5;exitDx=0;exitDy=0;entryX=0;entryY=0.5;entryDx=0;entryDy=0;" parent="1" source="6ryj9MMP-z20gta8WZ5h-5" target="6ryj9MMP-z20gta8WZ5h-9" edge="1">
          <mxGeometry relative="1" as="geometry" />
        </mxCell>
        <mxCell id="6ryj9MMP-z20gta8WZ5h-5" value="SURROGATES" style="rounded=1;whiteSpace=wrap;html=1;fillColor=#fff2cc;strokeColor=#d6b656;" parent="1" vertex="1">
          <mxGeometry x="200" y="170" width="160" height="60" as="geometry" />
        </mxCell>
        <mxCell id="6ryj9MMP-z20gta8WZ5h-6" value="TEMPLATE_NOTEBOOKS" style="rounded=1;whiteSpace=wrap;html=1;fillColor=#fff2cc;strokeColor=#d6b656;" parent="1" vertex="1">
          <mxGeometry x="200" y="390" width="160" height="60" as="geometry" />
        </mxCell>
        <mxCell id="6ryj9MMP-z20gta8WZ5h-40" style="edgeStyle=orthogonalEdgeStyle;rounded=0;orthogonalLoop=1;jettySize=auto;html=1;exitX=1;exitY=0.5;exitDx=0;exitDy=0;entryX=0;entryY=0.5;entryDx=0;entryDy=0;" parent="1" source="6ryj9MMP-z20gta8WZ5h-9" target="6ryj9MMP-z20gta8WZ5h-37" edge="1">
          <mxGeometry relative="1" as="geometry" />
        </mxCell>
        <mxCell id="6ryj9MMP-z20gta8WZ5h-41" style="edgeStyle=orthogonalEdgeStyle;rounded=0;orthogonalLoop=1;jettySize=auto;html=1;exitX=1;exitY=0.5;exitDx=0;exitDy=0;entryX=0;entryY=0.5;entryDx=0;entryDy=0;" parent="1" source="6ryj9MMP-z20gta8WZ5h-9" target="6ryj9MMP-z20gta8WZ5h-38" edge="1">
          <mxGeometry relative="1" as="geometry" />
        </mxCell>
        <mxCell id="6ryj9MMP-z20gta8WZ5h-44" style="edgeStyle=orthogonalEdgeStyle;rounded=0;orthogonalLoop=1;jettySize=auto;html=1;exitX=1;exitY=0.5;exitDx=0;exitDy=0;entryX=0;entryY=0.5;entryDx=0;entryDy=0;" parent="1" source="6ryj9MMP-z20gta8WZ5h-9" target="6ryj9MMP-z20gta8WZ5h-43" edge="1">
          <mxGeometry relative="1" as="geometry">
            <Array as="points">
              <mxPoint x="510" y="200" />
              <mxPoint x="510" y="300" />
            </Array>
          </mxGeometry>
        </mxCell>
        <mxCell id="6ryj9MMP-z20gta8WZ5h-9" value="S18" style="rounded=1;whiteSpace=wrap;html=1;fillColor=#fff2cc;strokeColor=#d6b656;" parent="1" vertex="1">
          <mxGeometry x="400" y="175" width="100" height="50" as="geometry" />
        </mxCell>
        <mxCell id="6ryj9MMP-z20gta8WZ5h-15" value="MAIN.PY&lt;br&gt;&lt;br&gt;MAIN_CONFIG.JSON" style="rounded=0;whiteSpace=wrap;html=1;fillColor=#dae8fc;strokeColor=#6c8ebf;" parent="1" vertex="1">
          <mxGeometry x="40" y="640" width="200" height="100" as="geometry" />
        </mxCell>
        <mxCell id="6ryj9MMP-z20gta8WZ5h-16" value="- Machine Learning Model&#39;s Library&lt;br&gt;(ML DEPLOY)&lt;br&gt;- FILTERING&lt;br&gt;- ERROR ANALYSIS&lt;br&gt;- VISUALIZATION" style="rounded=0;whiteSpace=wrap;html=1;fillColor=#dae8fc;strokeColor=#6c8ebf;" parent="1" vertex="1">
          <mxGeometry x="414" width="200" height="100" as="geometry" />
        </mxCell>
        <mxCell id="6ryj9MMP-z20gta8WZ5h-18" value="" style="endArrow=classic;html=1;rounded=0;exitX=1;exitY=0.5;exitDx=0;exitDy=0;entryX=0;entryY=0.25;entryDx=0;entryDy=0;" parent="1" source="6ryj9MMP-z20gta8WZ5h-3" target="6ryj9MMP-z20gta8WZ5h-16" edge="1">
          <mxGeometry width="50" height="50" relative="1" as="geometry">
            <mxPoint x="390" y="380" as="sourcePoint" />
            <mxPoint x="440" y="330" as="targetPoint" />
          </mxGeometry>
        </mxCell>
        <mxCell id="6ryj9MMP-z20gta8WZ5h-19" value="" style="endArrow=classic;html=1;rounded=0;exitX=1;exitY=0.5;exitDx=0;exitDy=0;" parent="1" source="6ryj9MMP-z20gta8WZ5h-3" target="6ryj9MMP-z20gta8WZ5h-16" edge="1">
          <mxGeometry width="50" height="50" relative="1" as="geometry">
            <mxPoint x="370" y="50" as="sourcePoint" />
            <mxPoint x="390" y="90" as="targetPoint" />
          </mxGeometry>
        </mxCell>
        <mxCell id="6ryj9MMP-z20gta8WZ5h-20" value="" style="endArrow=classic;html=1;rounded=0;exitX=1;exitY=0.5;exitDx=0;exitDy=0;entryX=0;entryY=0.5;entryDx=0;entryDy=0;" parent="1" source="6ryj9MMP-z20gta8WZ5h-3" target="6ryj9MMP-z20gta8WZ5h-16" edge="1">
          <mxGeometry width="50" height="50" relative="1" as="geometry">
            <mxPoint x="380" y="60" as="sourcePoint" />
            <mxPoint x="434" y="45" as="targetPoint" />
          </mxGeometry>
        </mxCell>
        <mxCell id="6ryj9MMP-z20gta8WZ5h-21" value="" style="endArrow=classic;html=1;rounded=0;exitX=1;exitY=0.5;exitDx=0;exitDy=0;entryX=0;entryY=0.75;entryDx=0;entryDy=0;" parent="1" source="6ryj9MMP-z20gta8WZ5h-3" target="6ryj9MMP-z20gta8WZ5h-16" edge="1">
          <mxGeometry width="50" height="50" relative="1" as="geometry">
            <mxPoint x="390" y="70" as="sourcePoint" />
            <mxPoint x="444" y="55" as="targetPoint" />
          </mxGeometry>
        </mxCell>
        <mxCell id="6ryj9MMP-z20gta8WZ5h-23" value="- RUN_MODEL&lt;br&gt;- STRESS_VALIDATION&lt;br&gt;- GLOBAL_STATS&lt;br&gt;- DISCRETE_VALIDATION" style="rounded=0;whiteSpace=wrap;html=1;fillColor=#dae8fc;strokeColor=#6c8ebf;" parent="1" vertex="1">
          <mxGeometry x="400" y="370" width="200" height="100" as="geometry" />
        </mxCell>
        <mxCell id="6ryj9MMP-z20gta8WZ5h-27" style="edgeStyle=orthogonalEdgeStyle;rounded=0;orthogonalLoop=1;jettySize=auto;html=1;exitX=1;exitY=0.5;exitDx=0;exitDy=0;entryX=0;entryY=0.5;entryDx=0;entryDy=0;" parent="1" source="6ryj9MMP-z20gta8WZ5h-25" target="6ryj9MMP-z20gta8WZ5h-26" edge="1">
          <mxGeometry relative="1" as="geometry" />
        </mxCell>
        <mxCell id="5Q-ALy65gyomJcdZ6lIA-2" style="edgeStyle=orthogonalEdgeStyle;rounded=0;orthogonalLoop=1;jettySize=auto;html=1;exitX=1;exitY=0.5;exitDx=0;exitDy=0;" edge="1" parent="1" source="6ryj9MMP-z20gta8WZ5h-25" target="5Q-ALy65gyomJcdZ6lIA-1">
          <mxGeometry relative="1" as="geometry" />
        </mxCell>
        <mxCell id="6ryj9MMP-z20gta8WZ5h-25" value="APPENDIX" style="rounded=1;whiteSpace=wrap;html=1;fillColor=#fff2cc;strokeColor=#d6b656;" parent="1" vertex="1">
          <mxGeometry x="412.5" y="510" width="133.33" height="50" as="geometry" />
        </mxCell>
        <mxCell id="6ryj9MMP-z20gta8WZ5h-26" value="IMAGES" style="ellipse;whiteSpace=wrap;html=1;shadow=1;strokeWidth=1;fillColor=#dae8fc;strokeColor=#6c8ebf;" parent="1" vertex="1">
          <mxGeometry x="648" y="480" width="75" height="50" as="geometry" />
        </mxCell>
        <mxCell id="6ryj9MMP-z20gta8WZ5h-29" value="" style="endArrow=classic;html=1;rounded=0;entryX=0;entryY=0.5;entryDx=0;entryDy=0;exitX=1;exitY=0.5;exitDx=0;exitDy=0;" parent="1" source="6ryj9MMP-z20gta8WZ5h-4" target="6ryj9MMP-z20gta8WZ5h-31" edge="1">
          <mxGeometry width="50" height="50" relative="1" as="geometry">
            <mxPoint x="360" y="520" as="sourcePoint" />
            <mxPoint x="400" y="585" as="targetPoint" />
          </mxGeometry>
        </mxCell>
        <mxCell id="6ryj9MMP-z20gta8WZ5h-30" value="" style="endArrow=classic;html=1;rounded=0;exitX=1;exitY=0.5;exitDx=0;exitDy=0;entryX=0;entryY=0.5;entryDx=0;entryDy=0;" parent="1" source="6ryj9MMP-z20gta8WZ5h-4" target="6ryj9MMP-z20gta8WZ5h-32" edge="1">
          <mxGeometry width="50" height="50" relative="1" as="geometry">
            <mxPoint x="320" y="660" as="sourcePoint" />
            <mxPoint x="400" y="610" as="targetPoint" />
          </mxGeometry>
        </mxCell>
        <mxCell id="6ryj9MMP-z20gta8WZ5h-31" value="NOTEBOOKS&lt;br&gt;(different kinds)" style="ellipse;whiteSpace=wrap;html=1;shadow=1;strokeWidth=1;fillColor=#dae8fc;strokeColor=#6c8ebf;" parent="1" vertex="1">
          <mxGeometry x="440" y="580" width="105" height="70" as="geometry" />
        </mxCell>
        <mxCell id="6ryj9MMP-z20gta8WZ5h-32" value="HTML FILES" style="ellipse;whiteSpace=wrap;html=1;shadow=1;strokeWidth=1;fillColor=#dae8fc;strokeColor=#6c8ebf;" parent="1" vertex="1">
          <mxGeometry x="440" y="670" width="105" height="70" as="geometry" />
        </mxCell>
        <mxCell id="6ryj9MMP-z20gta8WZ5h-33" value="" style="endArrow=classic;html=1;rounded=0;exitX=1;exitY=0.5;exitDx=0;exitDy=0;entryX=0;entryY=0.5;entryDx=0;entryDy=0;" parent="1" source="6ryj9MMP-z20gta8WZ5h-6" target="6ryj9MMP-z20gta8WZ5h-23" edge="1">
          <mxGeometry width="50" height="50" relative="1" as="geometry">
            <mxPoint x="390" y="390" as="sourcePoint" />
            <mxPoint x="440" y="340" as="targetPoint" />
          </mxGeometry>
        </mxCell>
        <mxCell id="6ryj9MMP-z20gta8WZ5h-34" value="" style="endArrow=classic;html=1;rounded=0;exitX=1;exitY=0.5;exitDx=0;exitDy=0;entryX=0;entryY=0.25;entryDx=0;entryDy=0;" parent="1" source="6ryj9MMP-z20gta8WZ5h-6" target="6ryj9MMP-z20gta8WZ5h-23" edge="1">
          <mxGeometry width="50" height="50" relative="1" as="geometry">
            <mxPoint x="370" y="430" as="sourcePoint" />
            <mxPoint x="410" y="430" as="targetPoint" />
          </mxGeometry>
        </mxCell>
        <mxCell id="6ryj9MMP-z20gta8WZ5h-35" value="" style="endArrow=classic;html=1;rounded=0;exitX=1;exitY=0.5;exitDx=0;exitDy=0;entryX=0;entryY=0.75;entryDx=0;entryDy=0;" parent="1" source="6ryj9MMP-z20gta8WZ5h-6" target="6ryj9MMP-z20gta8WZ5h-23" edge="1">
          <mxGeometry width="50" height="50" relative="1" as="geometry">
            <mxPoint x="370" y="430" as="sourcePoint" />
            <mxPoint x="410" y="405" as="targetPoint" />
          </mxGeometry>
        </mxCell>
        <mxCell id="6ryj9MMP-z20gta8WZ5h-36" value="" style="endArrow=classic;html=1;rounded=0;exitX=1;exitY=0.5;exitDx=0;exitDy=0;entryX=0;entryY=0.41;entryDx=0;entryDy=0;entryPerimeter=0;" parent="1" source="6ryj9MMP-z20gta8WZ5h-6" target="6ryj9MMP-z20gta8WZ5h-23" edge="1">
          <mxGeometry width="50" height="50" relative="1" as="geometry">
            <mxPoint x="380" y="440" as="sourcePoint" />
            <mxPoint x="420" y="415" as="targetPoint" />
          </mxGeometry>
        </mxCell>
        <mxCell id="6ryj9MMP-z20gta8WZ5h-49" style="edgeStyle=orthogonalEdgeStyle;rounded=0;orthogonalLoop=1;jettySize=auto;html=1;exitX=1;exitY=0.5;exitDx=0;exitDy=0;entryX=0;entryY=0.5;entryDx=0;entryDy=0;" parent="1" source="6ryj9MMP-z20gta8WZ5h-37" target="6ryj9MMP-z20gta8WZ5h-47" edge="1">
          <mxGeometry relative="1" as="geometry" />
        </mxCell>
        <mxCell id="6ryj9MMP-z20gta8WZ5h-50" style="edgeStyle=orthogonalEdgeStyle;rounded=0;orthogonalLoop=1;jettySize=auto;html=1;exitX=1;exitY=0.5;exitDx=0;exitDy=0;entryX=0;entryY=0.5;entryDx=0;entryDy=0;" parent="1" source="6ryj9MMP-z20gta8WZ5h-37" target="6ryj9MMP-z20gta8WZ5h-48" edge="1">
          <mxGeometry relative="1" as="geometry" />
        </mxCell>
        <mxCell id="6ryj9MMP-z20gta8WZ5h-37" value="MODEL" style="rounded=1;whiteSpace=wrap;html=1;fillColor=#fff2cc;strokeColor=#d6b656;" parent="1" vertex="1">
          <mxGeometry x="540" y="120" width="100" height="50" as="geometry" />
        </mxCell>
        <mxCell id="6ryj9MMP-z20gta8WZ5h-46" style="edgeStyle=orthogonalEdgeStyle;rounded=0;orthogonalLoop=1;jettySize=auto;html=1;exitX=1;exitY=0.5;exitDx=0;exitDy=0;entryX=0;entryY=0.5;entryDx=0;entryDy=0;" parent="1" source="6ryj9MMP-z20gta8WZ5h-38" target="6ryj9MMP-z20gta8WZ5h-45" edge="1">
          <mxGeometry relative="1" as="geometry" />
        </mxCell>
        <mxCell id="6ryj9MMP-z20gta8WZ5h-38" value="DATASETS" style="rounded=1;whiteSpace=wrap;html=1;fillColor=#fff2cc;strokeColor=#d6b656;" parent="1" vertex="1">
          <mxGeometry x="540" y="190" width="100" height="50" as="geometry" />
        </mxCell>
        <mxCell id="6ryj9MMP-z20gta8WZ5h-43" value="MODEL CONFIG JSON" style="rounded=0;whiteSpace=wrap;html=1;shadow=1;strokeWidth=1;fillColor=#dae8fc;strokeColor=#6c8ebf;" parent="1" vertex="1">
          <mxGeometry x="540" y="270" width="108" height="60" as="geometry" />
        </mxCell>
        <mxCell id="6ryj9MMP-z20gta8WZ5h-45" value="TEST SET..." style="ellipse;whiteSpace=wrap;html=1;shadow=1;strokeWidth=1;fillColor=#dae8fc;strokeColor=#6c8ebf;" parent="1" vertex="1">
          <mxGeometry x="697.5" y="225" width="75" height="50" as="geometry" />
        </mxCell>
        <mxCell id="6ryj9MMP-z20gta8WZ5h-47" value="MODEL FILES" style="ellipse;whiteSpace=wrap;html=1;shadow=1;strokeWidth=1;fillColor=#dae8fc;strokeColor=#6c8ebf;" parent="1" vertex="1">
          <mxGeometry x="690" y="50" width="90" height="60" as="geometry" />
        </mxCell>
        <mxCell id="6ryj9MMP-z20gta8WZ5h-48" value="MODEL&lt;br&gt;DEFINITION JSON" style="ellipse;whiteSpace=wrap;html=1;shadow=1;strokeWidth=1;fillColor=#dae8fc;strokeColor=#6c8ebf;" parent="1" vertex="1">
          <mxGeometry x="690" y="130" width="90" height="60" as="geometry" />
        </mxCell>
        <mxCell id="5Q-ALy65gyomJcdZ6lIA-1" value="CSVs" style="ellipse;whiteSpace=wrap;html=1;shadow=1;strokeWidth=1;fillColor=#dae8fc;strokeColor=#6c8ebf;" vertex="1" parent="1">
          <mxGeometry x="648" y="560" width="75" height="50" as="geometry" />
        </mxCell>
        <mxCell id="5Q-ALy65gyomJcdZ6lIA-3" value="Although the basic program follows this structure&lt;br&gt;&lt;br&gt;it is not mandatory to keep it, i.e.: change the paths&lt;br&gt;&lt;br&gt;in main_config.json to output files in another directory in&lt;br&gt;&lt;br&gt;the same computer (outside of the main folder)." style="rounded=0;whiteSpace=wrap;html=1;" vertex="1" parent="1">
          <mxGeometry x="-200" y="100" width="350" height="150" as="geometry" />
        </mxCell>
        <mxCell id="5Q-ALy65gyomJcdZ6lIA-4" value="&lt;font style=&quot;font-size: 28px&quot;&gt;!&lt;/font&gt;" style="rhombus;whiteSpace=wrap;html=1;" vertex="1" parent="1">
          <mxGeometry x="-270" y="135" width="80" height="80" as="geometry" />
        </mxCell>
      </root>
    </mxGraphModel>
  </diagram>
</mxfile>
